<svg width="87" height="87" viewBox="0 0 87 87" fill="none" xmlns="http://www.w3.org/2000/svg">
<path fill-rule="evenodd" clip-rule="evenodd" d="M33 31.9167C32.4474 31.9167 31.9175 32.1362 31.5268 32.5269C31.1361 32.9176 30.9166 33.4475 30.9166 34V37.3334C30.9166 38.0237 30.357 38.5834 29.6666 38.5834C28.9763 38.5834 28.4166 38.0237 28.4166 37.3334V34C28.4166 32.7844 28.8995 31.6187 29.7591 30.7591C30.6186 29.8996 31.7844 29.4167 33 29.4167H36.3333C37.0236 29.4167 37.5833 29.9763 37.5833 30.6667C37.5833 31.357 37.0236 31.9167 36.3333 31.9167H33Z" fill="white"/>
<path fill-rule="evenodd" clip-rule="evenodd" d="M29.6666 49.4167C30.357 49.4167 30.9166 49.9763 30.9166 50.6667V54C30.9166 54.5526 31.1361 55.0825 31.5268 55.4732C31.9175 55.8639 32.4474 56.0834 33 56.0834H36.3333C37.0236 56.0834 37.5833 56.643 37.5833 57.3334C37.5833 58.0237 37.0236 58.5834 36.3333 58.5834H33C31.7844 58.5834 30.6186 58.1005 29.7591 57.2409C28.8995 56.3814 28.4166 55.2156 28.4166 54V50.6667C28.4166 49.9763 28.9763 49.4167 29.6666 49.4167Z" fill="white"/>
<path fill-rule="evenodd" clip-rule="evenodd" d="M48.4166 30.6667C48.4166 29.9763 48.9763 29.4167 49.6666 29.4167H53C54.2155 29.4167 55.3813 29.8996 56.2409 30.7591C57.1004 31.6187 57.5833 32.7844 57.5833 34V37.3334C57.5833 38.0237 57.0236 38.5834 56.3333 38.5834C55.6429 38.5834 55.0833 38.0237 55.0833 37.3334V34C55.0833 33.4475 54.8638 32.9176 54.4731 32.5269C54.0824 32.1362 53.5525 31.9167 53 31.9167H49.6666C48.9763 31.9167 48.4166 31.357 48.4166 30.6667Z" fill="white"/>
<path fill-rule="evenodd" clip-rule="evenodd" d="M56.3333 49.4167C57.0236 49.4167 57.5833 49.9763 57.5833 50.6667V54C57.5833 55.2156 57.1004 56.3814 56.2409 57.2409C55.3813 58.1005 54.2155 58.5834 53 58.5834H49.6666C48.9763 58.5834 48.4166 58.0237 48.4166 57.3334C48.4166 56.643 48.9763 56.0834 49.6666 56.0834H53C53.5525 56.0834 54.0824 55.8639 54.4731 55.4732C54.8638 55.0825 55.0833 54.5526 55.0833 54V50.6667C55.0833 49.9763 55.6429 49.4167 56.3333 49.4167Z" fill="white"/>
<path fill-rule="evenodd" clip-rule="evenodd" d="M36.75 40.6667C36.75 39.9763 37.3096 39.4167 38 39.4167H38.0166C38.707 39.4167 39.2666 39.9763 39.2666 40.6667C39.2666 41.357 38.707 41.9167 38.0166 41.9167H38C37.3096 41.9167 36.75 41.357 36.75 40.6667Z" fill="white"/>
<path fill-rule="evenodd" clip-rule="evenodd" d="M46.75 40.6667C46.75 39.9763 47.3096 39.4167 48 39.4167H48.0166C48.707 39.4167 49.2666 39.9763 49.2666 40.6667C49.2666 41.357 48.707 41.9167 48.0166 41.9167H48C47.3096 41.9167 46.75 41.357 46.75 40.6667Z" fill="white"/>
<path fill-rule="evenodd" clip-rule="evenodd" d="M37.9585 48.1072C38.4516 47.624 39.243 47.6321 39.7262 48.1252C40.1529 48.5607 40.6623 48.9068 41.2244 49.143C41.7866 49.3792 42.3902 49.5009 43 49.5009C43.6097 49.5009 44.2134 49.3792 44.7755 49.143C45.3377 48.9068 45.847 48.5607 46.2738 48.1252C46.7569 47.6321 47.5483 47.624 48.0414 48.1072C48.5346 48.5903 48.5426 49.3817 48.0595 49.8748C47.4 50.548 46.6128 51.0827 45.744 51.4478C44.8752 51.8128 43.9423 52.0009 43 52.0009C42.0576 52.0009 41.1247 51.8128 40.2559 51.4478C39.3872 51.0827 38.6 50.548 37.9404 49.8748C37.4573 49.3817 37.4654 48.5903 37.9585 48.1072Z" fill="white"/>
<g style="mix-blend-mode:overlay">
<circle cx="43.5" cy="43.5" r="43.5" fill="white"/>
</g>
<g style="mix-blend-mode:overlay">
<circle cx="43" cy="44" r="29" fill="white"/>
</g>
<g style="mix-blend-mode:overlay">
<circle cx="43.5" cy="43.5" r="35.5" fill="white"/>
</g>
</svg>
